<svg height="64" width="64" xmlns="http://www.w3.org/2000/svg"><g fill="#241F20"><path d="M50.219.163H13.782c-2.459 0-4.454 2.138-4.454 4.775v16.559h45.343V4.938c.001-2.637-1.993-4.775-4.452-4.775zm-30.283 13.88c0 .771-.691 1.395-1.545 1.395-.853 0-1.544-.624-1.544-1.395V7.784c0-.771.691-1.395 1.544-1.395.854 0 1.545.624 1.545 1.395v6.259zM9.329 59.727c0 2.271 1.995 4.111 4.454 4.111h36.438c2.457 0 4.451-1.84 4.451-4.111V24.593H9.329v35.134zm7.518-25.666c0-1.02.691-1.847 1.544-1.847.854 0 1.545.827 1.545 1.847v8.287c0 1.02-.691 1.846-1.545 1.846-.853 0-1.544-.826-1.544-1.846v-8.287z"/></g></svg>