<svg xmlns="http://www.w3.org/2000/svg" width="612.001" height="612"><path d="M543.729 474.29c-23.31 2.945-46.052 5.816-69.686 8.799-1.233 16.857-4.175 35.137 16.447 45.525h36.403c18.029-10.641 23.808-31.481 16.836-54.324zM571.123 225.376c-26.125-7.21-52.005 4.886-64.117 30.501-9.574 20.261-18.565 40.795-28.058 61.726-115.685-34.808-230.4-33.641-346.24.186-9.225-20.805-17.964-40.238-26.478-59.775-10.458-24.021-32.782-37.237-58.187-34.22C24.668 226.569 4.608 245.87.76 269.302c-4.008 24.376 8.013 47.718 31.386 58.396 7.094 3.236 9.098 7.244 9.759 14.43 2.067 22.471 5.135 44.846 7.529 67.293 2.042 19.197 12.295 32.939 29.96 38.916 14.271 4.834 29.8 8.266 44.794 8.354 121.282.648 242.567.375 363.855.32 6.053-.006 12.159-.201 18.146-.994 34.229-4.523 53.138-20.129 56.457-46.688 2.756-21.998 5.556-43.994 7.503-66.07.711-8.076 3.015-12.551 10.999-16.178 21.752-9.875 33.084-31.772 30.485-55.457-2.402-21.884-18.381-40.128-40.51-46.248z"/><path d="M520.087 90.18c-14.809-4.562-61.513-6.264-76.988-6.38-40.521-.299-88.38-.387-137.062-.412-48.683.025-96.541.113-137.062.412-15.476.117-62.18 1.818-76.988 6.38-43.469 13.374-46.024 63.29-42.573 107.467 56.884-1.296 80.578 37.011 96.632 83.733 53.704-10.062 106.866-14.972 159.991-14.84 53.122-.132 106.284 4.779 159.988 14.84 16.055-46.723 39.751-85.026 96.632-83.733 3.454-44.177.9-94.093-42.57-107.467zM69.183 474.094c23.31 2.945 46.052 5.816 69.686 8.799 1.233 16.857 4.175 35.137-16.448 45.525H86.017c-18.027-10.64-23.803-31.48-16.834-54.324z"/></svg>